<svg width="10" height="10" viewBox="0 0 10 10" fill="none" xmlns="http://www.w3.org/2000/svg">
<path d="M5.08704 0.948242C3.87009 0.948242 3.71706 0.953839 3.23891 0.975108C2.76077 0.997496 2.43509 1.0725 2.14977 1.18332C1.85049 1.29572 1.57941 1.47203 1.35548 1.69992C1.12738 1.92363 0.950821 2.19427 0.838091 2.49302C0.727103 2.77735 0.651429 3.10309 0.629567 3.57884C0.608267 4.05738 0.602661 4.20962 0.602661 5.42641C0.602661 6.64209 0.608267 6.79432 0.629567 7.27175C0.651989 7.74862 0.727103 8.0738 0.838091 8.35869C0.953003 8.65309 1.10603 8.90272 1.35548 9.15179C1.60436 9.40085 1.85436 9.55421 2.14921 9.66839C2.43509 9.77921 2.76021 9.85477 3.23779 9.8766C3.7165 9.89787 3.86897 9.90347 5.08704 9.90347C6.3051 9.90347 6.45701 9.89787 6.93572 9.8766C7.41275 9.85421 7.73954 9.77921 8.02486 9.66839C8.32395 9.55594 8.59484 9.37963 8.8186 9.15179C9.06804 8.90272 9.22107 8.65309 9.33598 8.35869C9.44641 8.0738 9.52208 7.74862 9.54451 7.27175C9.56581 6.79432 9.57141 6.64209 9.57141 5.42585C9.57141 4.20962 9.56581 4.05738 9.54451 3.5794C9.52208 3.10309 9.44641 2.77735 9.33598 2.49302C9.22327 2.19426 9.04671 1.92362 8.8186 1.69992C8.59473 1.47194 8.32363 1.29562 8.0243 1.18332C7.73842 1.0725 7.41218 0.996936 6.93516 0.975108C6.45645 0.953839 6.30454 0.948242 5.08592 0.948242H5.0876H5.08704ZM4.68512 1.75533H5.0876C6.28492 1.75533 6.42674 1.75925 6.89928 1.78108C7.33651 1.80067 7.57418 1.87399 7.73226 1.935C7.94134 2.01615 8.09101 2.11354 8.24796 2.27026C8.40491 2.42697 8.50189 2.57585 8.58317 2.78518C8.64483 2.94246 8.7177 3.17977 8.73732 3.61634C8.75918 4.08817 8.76366 4.22977 8.76366 5.42474C8.76366 6.6197 8.75918 6.76186 8.73732 7.23369C8.7177 7.67026 8.64427 7.90701 8.58317 8.06485C8.51127 8.25926 8.39652 8.43505 8.2474 8.57921C8.09045 8.73593 7.94134 8.83276 7.7317 8.91391C7.57474 8.97548 7.33707 9.04824 6.89928 9.06839C6.42674 9.08966 6.28492 9.0947 5.0876 9.0947C3.89027 9.0947 3.74789 9.08966 3.27535 9.06839C2.83812 9.04824 2.60101 8.97548 2.44294 8.91391C2.24815 8.84223 2.07193 8.72786 1.92723 8.57921C1.77799 8.43483 1.66306 8.25887 1.59091 8.06429C1.52981 7.90701 1.45637 7.6697 1.43675 7.23313C1.41545 6.7613 1.41097 6.6197 1.41097 5.42362C1.41097 4.22809 1.41545 4.08705 1.43675 3.61522C1.45693 3.17865 1.52981 2.94134 1.59147 2.7835C1.67275 2.57473 1.77028 2.42529 1.92723 2.26858C2.08419 2.11186 2.23329 2.01503 2.44294 1.93388C2.60101 1.87231 2.83812 1.79955 3.27535 1.7794C3.68903 1.76037 3.84935 1.75477 4.68512 1.75421V1.75533ZM7.48113 2.49862C7.41046 2.49862 7.34049 2.51251 7.2752 2.53952C7.20991 2.56652 7.15059 2.6061 7.10062 2.65599C7.05065 2.70588 7.01101 2.76512 6.98397 2.83031C6.95693 2.8955 6.94301 2.96537 6.94301 3.03593C6.94301 3.10649 6.95693 3.17636 6.98397 3.24155C7.01101 3.30674 7.05065 3.36597 7.10062 3.41587C7.15059 3.46576 7.20991 3.50534 7.2752 3.53234C7.34049 3.55934 7.41046 3.57324 7.48113 3.57324C7.62385 3.57324 7.76073 3.51663 7.86164 3.41587C7.96256 3.3151 8.01926 3.17843 8.01926 3.03593C8.01926 2.89342 7.96256 2.75676 7.86164 2.65599C7.76073 2.55523 7.62385 2.49862 7.48113 2.49862ZM5.0876 3.1266C4.78214 3.12184 4.47878 3.1778 4.19519 3.29123C3.9116 3.40466 3.65345 3.57328 3.43575 3.78729C3.21805 4.00129 3.04517 4.2564 2.92716 4.53775C2.80915 4.81911 2.74838 5.1211 2.74838 5.42613C2.74838 5.73117 2.80915 6.03316 2.92716 6.31451C3.04517 6.59587 3.21805 6.85098 3.43575 7.06498C3.65345 7.27899 3.9116 7.44761 4.19519 7.56104C4.47878 7.67446 4.78214 7.73043 5.0876 7.72567C5.69217 7.71625 6.26879 7.46984 6.69299 7.03961C7.11719 6.60939 7.35495 6.02987 7.35495 5.42613C7.35495 4.8224 7.11719 4.24288 6.69299 3.81265C6.26879 3.38243 5.69217 3.13602 5.0876 3.1266ZM5.0876 3.93313C5.48409 3.93313 5.86434 4.0904 6.14471 4.37034C6.42507 4.65028 6.58258 5.02996 6.58258 5.42585C6.58258 5.82175 6.42507 6.20143 6.14471 6.48137C5.86434 6.76131 5.48409 6.91858 5.0876 6.91858C4.6911 6.91858 4.31085 6.76131 4.03049 6.48137C3.75012 6.20143 3.59262 5.82175 3.59262 5.42585C3.59262 5.02996 3.75012 4.65028 4.03049 4.37034C4.31085 4.0904 4.6911 3.93313 5.0876 3.93313Z" fill="black"/>
</svg>
