<svg width="10" height="8" viewBox="0 0 10 8" fill="none" xmlns="http://www.w3.org/2000/svg">
<path d="M2.99809 7.34389C6.38268 7.34389 8.23416 4.5437 8.23416 2.11964C8.23416 2.04128 8.23416 1.9618 8.2308 1.88344C8.59126 1.62289 8.90237 1.30032 9.14954 0.93083C8.81282 1.07907 8.45601 1.17677 8.09066 1.22076C8.4755 0.991075 8.76372 0.629693 8.90177 0.203778C8.54021 0.417654 8.14448 0.567793 7.73191 0.647622C7.45454 0.352672 7.08751 0.157277 6.68766 0.0917022C6.28781 0.0261274 5.87747 0.0940328 5.52018 0.2849C5.1629 0.475767 4.87862 0.778944 4.71138 1.14747C4.54414 1.51599 4.50326 1.9293 4.59509 2.32337C3.86343 2.28674 3.14766 2.09695 2.49419 1.76632C1.84072 1.43569 1.26415 0.971601 0.801872 0.404151C0.567194 0.808862 0.495575 1.28758 0.601558 1.74311C0.707542 2.19863 0.983184 2.5968 1.37251 2.85676C1.08077 2.84687 0.795437 2.76864 0.539536 2.62841V2.65359C0.540039 3.07755 0.687132 3.48834 0.955952 3.81652C1.22477 4.14469 1.59883 4.37013 2.0149 4.45471C1.85697 4.49815 1.69383 4.51981 1.53002 4.51908C1.41454 4.51943 1.29929 4.50874 1.18585 4.48717C1.30344 4.85213 1.53242 5.17122 1.8407 5.39975C2.14899 5.62829 2.52114 5.75481 2.90504 5.76161C2.25288 6.27307 1.44729 6.55046 0.618013 6.54911C0.47189 6.54973 0.325869 6.54132 0.180786 6.52393C1.02246 7.05971 1.99993 7.3442 2.99809 7.34389Z" fill="black"/>
</svg>
